<svg width="76" height="76" viewBox="0 0 76 76" fill="none" xmlns="http://www.w3.org/2000/svg">
<g filter="url(#filter0_d_552_71)">
<circle cx="38" cy="34" r="34" fill="url(#paint0_linear_552_71)"/>
<circle cx="38" cy="34" r="33.5" stroke="white"/>
</g>
<path d="M50.7241 31.3123C50.5732 31.3123 50.5229 31.2452 50.5229 31.1111C50.5229 30.9433 50.5229 30.7756 50.5061 30.6079C50.4725 30.1886 50.2042 29.8867 49.8184 29.8867H43.4282C43.0759 29.8867 42.8076 30.1215 42.7405 30.4737C42.707 30.6414 42.7237 30.8259 42.7237 30.9937C42.7237 31.3123 42.7908 31.3123 42.4218 31.2956C42.3547 31.2788 42.2709 31.2956 42.2038 31.2788C42.0528 31.262 41.9857 31.3123 42.0025 31.4801C42.0193 31.6478 42.0025 31.8323 42.0025 32H51.2273V31.8323C51.2273 31.3291 51.2273 31.3123 50.7241 31.3123ZM58.0536 26.918C55.5713 25.6265 53.089 24.3015 50.5899 23.01C50.4558 22.9429 50.4558 22.8759 50.5229 22.7585C50.7744 22.3559 50.9925 21.9366 51.2273 21.5341C51.2944 21.4334 51.3112 21.3831 51.177 21.2993C49.852 20.5445 48.5269 19.773 47.2019 19.0014C47.0678 18.9344 47.0174 18.9344 46.9336 19.0685C46.1788 20.3936 45.4073 21.7353 44.6358 23.0604C44.5687 23.1778 44.5855 23.2113 44.7029 23.2952C46.0279 24.0499 47.3529 24.8214 48.6779 25.593C48.8121 25.6601 48.8624 25.6433 48.9295 25.5259C49.1475 25.1401 49.3656 24.7711 49.5836 24.4021C49.7346 24.1506 49.7346 24.1506 49.9694 24.3015C52.3343 25.7942 54.6824 27.287 57.0473 28.7797C57.2486 28.9139 57.4666 29.0145 57.7014 28.9978C58.2884 28.9978 58.7413 28.5784 58.7748 28.025C58.8084 27.4882 58.5233 27.1528 58.0536 26.918ZM47.4032 18.3138C48.8121 19.1356 50.2377 19.9575 51.6466 20.7793C51.8143 20.8632 51.982 20.9135 52.1833 20.8632C52.4684 20.7793 52.6529 20.578 52.72 20.2929C52.7703 19.991 52.6362 19.7059 52.3343 19.5382C51.6969 19.1524 51.0428 18.7834 50.4054 18.4144C49.6507 17.9783 48.8959 17.5423 48.1244 17.1062C47.6045 16.821 47.0342 17.1397 47.0342 17.71C47.0342 17.9783 47.1684 18.1796 47.4032 18.3138ZM43.512 25.0395C43.9649 25.3078 44.4177 25.5594 44.8706 25.8278C45.8434 26.3813 46.7994 26.9515 47.7554 27.4882C48.2586 27.7734 48.8456 27.4547 48.8456 26.8174C48.8289 26.5993 48.6947 26.398 48.4599 26.2639C47.051 25.442 45.6421 24.637 44.2332 23.8151C44.0655 23.7312 43.8978 23.6809 43.7133 23.7312C43.4282 23.7983 43.2269 23.9828 43.1598 24.2847C43.0927 24.5866 43.2269 24.8718 43.512 25.0395Z" fill="white"/>
<path d="M13 29.4251C13 29.9044 13.3794 30.194 13.8488 30.194C14.1384 30.194 14.368 30.0542 14.5678 29.8545L24.3139 20.9772C24.4237 20.8673 24.5435 20.8274 24.6733 20.8274C24.7932 20.8274 24.903 20.8673 25.0228 20.9772L34.759 29.8545C34.9686 30.0542 35.1983 30.194 35.4779 30.194C35.9472 30.194 36.3268 29.9044 36.3268 29.4251C36.3268 29.1255 36.217 28.9358 36.0272 28.7661L32.572 25.6205V19.719C32.572 19.2796 32.2924 19 31.8532 19H30.545C30.1156 19 29.816 19.2796 29.816 19.719V23.1141L25.8616 19.4993C25.5121 19.1697 25.0828 19.01 24.6634 19.01C24.2439 19.01 23.8246 19.1697 23.4651 19.4993L13.2996 28.7661C13.1199 28.9358 13 29.1255 13 29.4251ZM15.8559 37.8032C15.8559 39.1912 16.6947 40 18.1027 40H22.1469V32.9002C22.1469 32.4408 22.4565 32.1412 22.9159 32.1412H26.4408C26.9002 32.1412 27.1998 32.4408 27.1998 32.9002V40H31.2339C32.6419 40 33.4708 39.1912 33.4708 37.8032V30.4936L24.9929 22.8545C24.883 22.7546 24.7632 22.7047 24.6434 22.7047C24.5335 22.7047 24.4237 22.7546 24.3039 22.8645L15.8559 30.5435V37.8032Z" fill="white"/>
<path d="M34 47.4465C34 47.7889 34.271 47.9957 34.6063 47.9957C34.8131 47.9957 34.9772 47.8959 35.1198 47.7532L42.0813 41.4123C42.1598 41.3338 42.2454 41.3053 42.3381 41.3053C42.4237 41.3053 42.5021 41.3338 42.5877 41.4123L49.5422 47.7532C49.6919 47.8959 49.8559 47.9957 50.0556 47.9957C50.3909 47.9957 50.662 47.7889 50.662 47.4465C50.662 47.2325 50.5835 47.097 50.448 46.9758L47.98 44.7289V40.5136C47.98 40.1997 47.7803 40 47.4666 40H46.5321C46.2254 40 46.0114 40.1997 46.0114 40.5136V42.9386L43.1869 40.3566C42.9372 40.1212 42.6305 40.0071 42.331 40.0071C42.0314 40.0071 41.7318 40.1212 41.475 40.3566L34.214 46.9758C34.0856 47.097 34 47.2325 34 47.4465ZM36.0399 53.4308C36.0399 54.4223 36.6391 55 37.6448 55H40.5335V49.9287C40.5335 49.6006 40.7546 49.3866 41.0828 49.3866H43.6006C43.9287 49.3866 44.1427 49.6006 44.1427 49.9287V55H47.0242C48.03 55 48.622 54.4223 48.622 53.4308V48.2097L42.5664 42.7532C42.4879 42.6819 42.4023 42.6462 42.3167 42.6462C42.2382 42.6462 42.1598 42.6819 42.0742 42.7603L36.0399 48.2454V53.4308Z" fill="white"/>
<defs>
<filter id="filter0_d_552_71" x="0" y="0" width="76" height="76" filterUnits="userSpaceOnUse" color-interpolation-filters="sRGB">
<feFlood flood-opacity="0" result="BackgroundImageFix"/>
<feColorMatrix in="SourceAlpha" type="matrix" values="0 0 0 0 0 0 0 0 0 0 0 0 0 0 0 0 0 0 127 0" result="hardAlpha"/>
<feOffset dy="4"/>
<feGaussianBlur stdDeviation="2"/>
<feComposite in2="hardAlpha" operator="out"/>
<feColorMatrix type="matrix" values="0 0 0 0 0 0 0 0 0 0 0 0 0 0 0 0 0 0 0.25 0"/>
<feBlend mode="normal" in2="BackgroundImageFix" result="effect1_dropShadow_552_71"/>
<feBlend mode="normal" in="SourceGraphic" in2="effect1_dropShadow_552_71" result="shape"/>
</filter>
<linearGradient id="paint0_linear_552_71" x1="38" y1="0" x2="38" y2="68" gradientUnits="userSpaceOnUse">
<stop stop-color="#D3A86B"/>
<stop offset="1" stop-color="#A3784A"/>
</linearGradient>
</defs>
</svg>
