<!DOCTYPE svg PUBLIC "-//W3C//DTD SVG 1.1//EN" "http://www.w3.org/Graphics/SVG/1.1/DTD/svg11.dtd">
<!-- Uploaded to: SVG Repo, www.svgrepo.com, Transformed by: SVG Repo Mixer Tools -->
<svg height="64px" width="64px" version="1.1" id="Layer_1" xmlns="http://www.w3.org/2000/svg" xmlns:xlink="http://www.w3.org/1999/xlink" viewBox="0 0 291.929 291.929" xml:space="preserve" fill="#000000" stroke="#000000">
<g id="SVGRepo_bgCarrier" stroke-width="0"/>
<g id="SVGRepo_tracerCarrier" stroke-linecap="round" stroke-linejoin="round"/>
<g id="SVGRepo_iconCarrier"> <g> <path style="fill:#000000;" d="M264.95,191.544h-42.461c-9.537,0-10.403,3.957-11.689,12.427 c-3.474,20.405-22.958,32.887-46.354,32.887c-26.861,0-48.479-21.135-50.22-45.379h60.04c7.367,0,12.564-2.544,12.564-12.327 V166.99c0-9.756-5.197-12.017-12.564-12.017h-60.468v-18.126h60.468c7.367,0,12.564-2.535,12.564-12.327v-12.163 c0-9.765-5.197-12.327-12.564-12.327h-59.602c3.036-22.101,23.934-45.388,49.5-45.388c23.396,0,36.662,9.218,45.78,23.241 c3.465,5.106,3.902,13.166,13.002,13.166h41.877c9.966,0,13.439-3.556,13.439-13.74C272.627,23.35,219.061,0,165.321,0 C114.217,0,51.095,34.583,49.791,100.021h-23.56c-7.786,0-12.564,2.544-12.564,12.327v12.163c0,9.774,4.769,12.327,12.564,12.327 H41.22v18.117H26.231c-7.786,0-12.564,2.544-12.564,12.327v11.88c0,9.756,4.769,12.327,12.564,12.327h23.533v1.714 c0,66.705,63.131,98.726,114.682,98.726c53.739,0,113.496-32.267,113.496-87.101C277.942,194.634,274.478,191.544,264.95,191.544z"/> </g> </g>
</svg>