<svg width="20" height="18" viewBox="0 0 20 18" fill="none" xmlns="http://www.w3.org/2000/svg">
<path d="M19.3035 5.49654C18.8575 4.4247 18.2191 3.46231 17.4061 2.63603C16.5931 1.80974 15.6462 1.16101 14.5916 0.707597C13.4994 0.238072 12.3395 0 11.1445 0C9.94948 0 8.78966 0.238071 7.69736 0.707684C5.64734 1.58891 4.0007 3.22502 3.08352 5.26953C2.80832 5.883 3.24682 6.58049 3.91023 6.58049H3.91031C4.26596 6.58049 4.58965 6.3702 4.73727 6.0413C5.84946 3.56315 8.31372 1.83831 11.1659 1.84701C15.0477 1.85877 18.1826 5.0548 18.1826 9.00004C18.1826 12.9442 15.0254 16.1531 11.1446 16.1531C8.30215 16.1531 5.848 14.4315 4.73813 11.9606C4.59017 11.6311 4.26673 11.4195 3.9104 11.4195C3.24734 11.4195 2.80832 12.1167 3.08335 12.7298C3.99556 14.763 5.63441 16.4055 7.69744 17.2923C8.78975 17.7618 9.94957 18 11.1446 18C12.3396 18 13.4995 17.7619 14.5918 17.2923C15.6464 16.839 16.5933 16.1902 17.4063 15.3639C18.2193 14.5376 18.8576 13.5752 19.3037 12.5034C19.7657 11.3932 20 10.2144 20 8.99987C20 7.7853 19.7658 6.60653 19.3037 5.49637L19.3035 5.49654Z" fill="url(#paint0_linear_1_1304)"/>
<path d="M0 9C0 9.55229 0.410245 10 0.916312 10H14V8H0.916312C0.410245 8 0 8.44771 0 9Z" fill="url(#paint1_linear_1_1304)"/>
<path d="M10.2884 11.7398C9.90387 11.393 9.90387 10.8306 10.2884 10.4838L12.4876 8.5L10.2884 6.51616C9.90387 6.16929 9.90387 5.60703 10.2884 5.26015C10.6729 4.91328 11.2962 4.91328 11.6808 5.26015L14.8074 8.0806C15.0642 8.31224 15.0642 8.68776 14.8074 8.9194L11.6808 11.7398C11.2962 12.0867 10.6729 12.0867 10.2884 11.7398Z" fill="url(#paint2_linear_1_1304)"/>
<defs>
<linearGradient id="paint0_linear_1_1304" x1="11.5" y1="0" x2="11.5" y2="18" gradientUnits="userSpaceOnUse">
<stop stop-color="#D3A86B"/>
<stop offset="1" stop-color="#A3784A"/>
</linearGradient>
<linearGradient id="paint1_linear_1_1304" x1="7" y1="8" x2="7" y2="10" gradientUnits="userSpaceOnUse">
<stop stop-color="#D3A86B"/>
<stop offset="1" stop-color="#A3784A"/>
</linearGradient>
<linearGradient id="paint2_linear_1_1304" x1="12.5" y1="5" x2="12.5" y2="12" gradientUnits="userSpaceOnUse">
<stop stop-color="#D3A86B"/>
<stop offset="1" stop-color="#A3784A"/>
</linearGradient>
</defs>
</svg>
