<svg width="22" height="30" viewBox="0 0 22 30" fill="none" xmlns="http://www.w3.org/2000/svg">
<path d="M21.4752 10.2791C21.1298 4.96245 16.3386 0.502441 10.9938 0.502441H10.9166C8.14482 0.525517 5.53966 1.62736 3.57954 3.60822C1.59367 5.61072 0.500977 8.26725 0.500977 11.0882C0.500977 20.1157 10.0055 29.1388 10.4096 29.5181C10.5762 29.6746 10.7893 29.7524 11.0017 29.7524C11.2141 29.7524 11.4265 29.6746 11.5924 29.5181C12.0071 29.1272 21.501 20.1142 21.501 11.0918C21.501 10.8199 21.4931 10.5495 21.4752 10.2798V10.2791ZM11.0017 15.8475C8.39797 15.8475 6.2798 13.7116 6.2798 11.086C6.2798 8.46051 8.39797 6.32461 11.0017 6.32461C13.6054 6.32461 15.7222 8.46051 15.7222 11.086C15.7222 13.7116 13.604 15.8475 11.0017 15.8475Z" fill="url(#paint0_linear_1_57)"/>
<defs>
<linearGradient id="paint0_linear_1_57" x1="11.001" y1="0.502441" x2="11.001" y2="29.7524" gradientUnits="userSpaceOnUse">
<stop stop-color="#D3A86B"/>
<stop offset="1" stop-color="#A3784A"/>
</linearGradient>
</defs>
</svg>
