<svg width="30" height="21" viewBox="0 0 30 21" fill="none" xmlns="http://www.w3.org/2000/svg">
<path d="M11.7524 8.92262C11.7527 8.92262 11.7529 8.92271 11.753 8.92286L11.772 8.94018C11.7725 8.94066 11.7728 8.94079 11.7735 8.94109C11.7742 8.94142 11.7746 8.94277 11.7752 8.94331L12.8672 9.9396C14.1477 11.1078 16.1074 11.1074 17.3873 9.93864L18.4307 8.98593L18.5546 8.87304L28.0706 0.184685C28.1433 0.11832 28.107 0.00195312 28.0085 0.00195312H2.23951C2.1411 0.00195312 2.10479 0.118306 2.17748 0.184639L11.7457 8.91614C11.746 8.9164 11.7462 8.91665 11.7465 8.91692C11.7474 8.91791 11.75 8.92051 11.7518 8.92235C11.7519 8.92252 11.7522 8.92262 11.7524 8.92262Z" fill="url(#paint0_linear_1_73)"/>
<path d="M0.670516 1.64329C0.603795 1.58305 0.499512 1.62257 0.499512 1.71247V18.5226C0.499512 18.6162 0.610994 18.6545 0.676646 18.5877L6.48079 12.685C8.12679 11.011 8.04633 8.30291 6.30385 6.72963L0.670516 1.64329Z" fill="url(#paint1_linear_1_73)"/>
<path d="M15.7403 13.6397C15.7398 13.64 15.7394 13.6403 15.739 13.6407C15.5637 13.8049 15.3455 13.8874 15.1266 13.8874C14.9074 13.8874 14.6883 13.8047 14.5137 13.6401L12.2717 11.5295C11.669 10.9621 10.7205 10.9902 10.1525 11.5924L2.15616 20.0686C2.08951 20.1392 2.12999 20.2524 2.22712 20.2524H28.0217C28.1185 20.2524 28.1588 20.1387 28.0924 20.0683L20.0986 11.5948C19.5305 10.9926 18.582 10.9645 17.9793 11.532L15.7417 13.6387C15.7413 13.6391 15.7408 13.6394 15.7403 13.6397Z" fill="url(#paint2_linear_1_73)"/>
<path d="M29.736 1.50146C29.7362 1.50146 29.7363 1.50169 29.7362 1.50181L23.3246 7.2924C21.921 8.56005 21.8565 10.7417 23.1827 12.0901L29.5733 18.5877C29.6394 18.6549 29.7505 18.6169 29.7505 18.5226V1.71247C29.7505 1.64097 29.7454 1.57095 29.7359 1.50169C29.7358 1.50157 29.7359 1.50146 29.736 1.50146Z" fill="url(#paint3_linear_1_73)"/>
<defs>
<linearGradient id="paint0_linear_1_73" x1="15.124" y1="0.00195312" x2="15.124" y2="12.002" gradientUnits="userSpaceOnUse">
<stop stop-color="#D3A86B"/>
<stop offset="1" stop-color="#A3784A"/>
</linearGradient>
<linearGradient id="paint1_linear_1_73" x1="4.99951" y1="1.50146" x2="4.99951" y2="18.7515" gradientUnits="userSpaceOnUse">
<stop stop-color="#D3A86B"/>
<stop offset="1" stop-color="#A3784A"/>
</linearGradient>
<linearGradient id="paint2_linear_1_73" x1="15.124" y1="10.5024" x2="15.124" y2="20.2524" gradientUnits="userSpaceOnUse">
<stop stop-color="#D3A86B"/>
<stop offset="1" stop-color="#A3784A"/>
</linearGradient>
<linearGradient id="paint3_linear_1_73" x1="25.2505" y1="1.50146" x2="25.2505" y2="18.7515" gradientUnits="userSpaceOnUse">
<stop stop-color="#D3A86B"/>
<stop offset="1" stop-color="#A3784A"/>
</linearGradient>
</defs>
</svg>
