<svg width="30" height="30" viewBox="0 0 30 30" fill="none" xmlns="http://www.w3.org/2000/svg">
<path d="M29.2006 27.2865C30.3915 26.0988 30.2305 24.1211 28.863 23.1141L24.1338 19.6399C23.034 18.8309 21.5162 18.9426 20.5585 19.897L19.7487 20.7068C19.6558 20.7996 19.5581 20.8842 19.4563 20.9606C19.0694 21.3474 18.4904 21.4706 17.9787 21.276C13.8663 19.7154 11.0294 16.8728 9.4598 12.7563C9.26433 12.2438 9.38671 11.6647 9.7752 11.2771L9.93618 11.1161C9.97067 11.0775 10.006 11.0397 10.043 11.0027L10.852 10.1937C11.8096 9.23604 11.9189 7.71904 11.1123 6.61845L7.63562 1.88757C6.63195 0.522515 4.65254 0.362355 3.46407 1.55L2.62631 2.38776C1.67027 3.34462 1.04113 4.5758 0.834978 5.90636C0.806231 6.08869 0.786519 6.27349 0.774199 6.45912C0.563117 9.71488 1.7368 13.2072 4.14331 16.9106C4.22462 17.0354 4.30676 17.1603 4.39053 17.2859C6.79047 20.8711 9.88279 23.9634 13.4679 26.3633C13.5862 26.4422 13.7036 26.5202 13.8219 26.5966C17.5327 29.0105 21.0332 30.1907 24.2947 29.978C24.4795 29.9665 24.6643 29.946 24.8458 29.918C26.1764 29.7127 27.4092 29.0819 28.3628 28.1284L29.2006 27.2873V27.2865Z" fill="url(#paint0_linear_1_64)"/>
<path d="M29.9981 14.6869C29.7311 11.0813 28.176 7.68873 25.6206 5.13257C23.0652 2.57803 19.6726 1.02288 16.0661 0.755086C15.5201 0.715562 15.0441 1.12371 15.0038 1.67059C14.9627 2.21667 15.3732 2.69257 15.9193 2.7329C19.0523 2.96601 21.9989 4.31628 24.2179 6.53527C26.4377 8.75507 27.788 11.7024 28.0203 14.8337C28.059 15.3548 28.4938 15.7524 29.0084 15.7524C29.0334 15.7524 29.0576 15.7516 29.0826 15.75C29.6287 15.7097 30.0393 15.2338 29.9981 14.6877V14.6869Z" fill="url(#paint1_linear_1_64)"/>
<path d="M21.915 9.58809C20.3471 8.01944 18.3571 7.0429 16.161 6.76233C15.5973 6.6878 15.0806 7.08896 15.0094 7.65345C14.9374 8.21793 15.336 8.733 15.9005 8.80502C17.6401 9.0278 19.2164 9.80166 20.4593 11.0445C21.7023 12.2874 22.4762 13.8636 22.6989 15.6039C22.7651 16.124 23.2082 16.5034 23.7191 16.5034C23.7626 16.5034 23.807 16.5009 23.8514 16.495C24.4159 16.423 24.8146 15.9071 24.7426 15.3426C24.462 13.1458 23.4846 11.1568 21.9158 9.58893L21.915 9.58809Z" fill="url(#paint2_linear_1_64)"/>
<defs>
<linearGradient id="paint0_linear_1_64" x1="15.3751" y1="0.752441" x2="15.3751" y2="30.0024" gradientUnits="userSpaceOnUse">
<stop stop-color="#D3A86B"/>
<stop offset="1" stop-color="#A3784A"/>
</linearGradient>
<linearGradient id="paint1_linear_1_64" x1="22.501" y1="0.752441" x2="22.501" y2="15.7524" gradientUnits="userSpaceOnUse">
<stop stop-color="#D3A86B"/>
<stop offset="1" stop-color="#A3784A"/>
</linearGradient>
<linearGradient id="paint2_linear_1_64" x1="19.876" y1="6.75342" x2="19.876" y2="16.5034" gradientUnits="userSpaceOnUse">
<stop stop-color="#D3A86B"/>
<stop offset="1" stop-color="#A3784A"/>
</linearGradient>
</defs>
</svg>
