<svg width="24" height="24" viewBox="0 0 24 24" fill="none" xmlns="http://www.w3.org/2000/svg">
<rect x="0.5" y="0.5" width="23" height="23" rx="11.5" stroke="white"/>
<path d="M17.9415 9.54186C17.9341 9.03825 17.841 8.53864 17.6627 8.06764C17.3507 7.26333 16.7154 6.62734 15.9111 6.316C15.4461 6.14104 14.9544 6.04723 14.4568 6.03659C13.8168 6.00798 13.6139 6 11.9894 6C10.3648 6 10.1566 6 9.52123 6.03659C9.02428 6.04723 8.53265 6.14104 8.06764 6.316C7.26333 6.62734 6.62734 7.26333 6.316 8.06764C6.14104 8.53265 6.04657 9.02428 6.03725 9.52123C6.00865 10.1619 6 10.3648 6 11.9894C6 13.6139 6 13.8215 6.03725 14.4575C6.04723 14.9551 6.14104 15.4461 6.316 15.9124C6.62801 16.716 7.26333 17.352 8.0683 17.6634C8.53132 17.8443 9.02295 17.9468 9.5219 17.9627C10.1625 17.9914 10.3655 18 11.99 18C13.6146 18 13.8228 18 14.4581 17.9627C14.9551 17.9528 15.4467 17.859 15.9124 17.684C16.7167 17.372 17.352 16.736 17.664 15.9324C17.839 15.4667 17.9328 14.9757 17.9428 14.4774C17.9714 13.8375 17.98 13.6346 17.98 12.0093C17.9787 10.3847 17.9787 10.1785 17.9415 9.54186ZM11.9854 15.0615C10.2863 15.0615 8.90986 13.6851 8.90986 11.986C8.90986 10.287 10.2863 8.91052 11.9854 8.91052C13.6831 8.91052 15.0609 10.287 15.0609 11.986C15.0609 13.6851 13.6831 15.0615 11.9854 15.0615ZM15.1833 9.51392C14.7861 9.51392 14.4661 9.19326 14.4661 8.79676C14.4661 8.40027 14.7861 8.07961 15.1833 8.07961C15.5791 8.07961 15.8998 8.40027 15.8998 8.79676C15.8998 9.19326 15.5791 9.51392 15.1833 9.51392Z" fill="white"/>
<path d="M11.9861 13.9863C13.0894 13.9863 13.9838 13.0919 13.9838 11.9885C13.9838 10.8852 13.0894 9.99072 11.9861 9.99072C10.8827 9.99072 9.98828 10.8852 9.98828 11.9885C9.98828 13.0919 10.8827 13.9863 11.9861 13.9863Z" fill="white"/>
</svg>
