<svg width="24" height="21" viewBox="0 0 24 21" fill="none" xmlns="http://www.w3.org/2000/svg">
<path d="M12.2138 20.0373C12.0024 20.0373 11.932 19.9433 11.932 19.7555C11.932 19.5207 11.932 19.2859 11.9085 19.0511C11.8616 18.464 11.4859 18.0414 10.9458 18.0414H1.99943C1.50632 18.0414 1.13062 18.3701 1.0367 18.8632C0.989735 19.098 1.01322 19.3563 1.01322 19.5911C1.01322 20.0373 1.10714 20.0373 0.590553 20.0138C0.496628 19.9903 0.379222 20.0138 0.285297 19.9903C0.0739659 19.9668 -0.0199591 20.0373 0.00352219 20.2721C0.0270034 20.5069 0.00352219 20.7652 0.00352219 21H12.9182V20.7652C12.9182 20.0607 12.9182 20.0373 12.2138 20.0373ZM22.4751 13.8852C18.9999 12.0771 15.5246 10.2221 12.0259 8.41405C11.8381 8.32012 11.8381 8.2262 11.932 8.06183C12.2842 7.49828 12.5895 6.91125 12.9182 6.3477C13.0121 6.20681 13.0356 6.13637 12.8478 6.01896C10.9927 4.9623 9.13773 3.88217 7.28271 2.80203C7.09486 2.7081 7.02441 2.7081 6.90701 2.89595C5.85035 4.75097 4.77022 6.62947 3.69008 8.48449C3.59615 8.64886 3.61963 8.69582 3.784 8.81323C5.63902 9.86989 7.49404 10.95 9.34906 12.0302C9.53691 12.1241 9.60735 12.1006 9.70128 11.9362C10.0065 11.3962 10.3118 10.8796 10.617 10.363C10.8284 10.0108 10.8284 10.0108 11.1571 10.2221C14.468 12.3119 17.7553 14.4018 21.0662 16.4916C21.348 16.6794 21.6532 16.8203 21.982 16.7969C22.8038 16.7969 23.4378 16.2098 23.4848 15.4349C23.5317 14.6835 23.1325 14.2139 22.4751 13.8852ZM7.56448 1.8393C9.53691 2.98988 11.5328 4.14046 13.5052 5.29104C13.7401 5.40845 13.9749 5.47889 14.2566 5.40845C14.6558 5.29104 14.9141 5.00927 15.008 4.61009C15.0785 4.18742 14.8906 3.78824 14.468 3.55343C13.5757 3.01336 12.6599 2.49677 11.7676 1.98019C10.711 1.36967 9.65431 0.759161 8.57418 0.148648C7.84626 -0.250533 7.0479 0.195611 7.0479 0.993973C7.0479 1.36967 7.23575 1.65145 7.56448 1.8393ZM2.11683 11.2553C2.75083 11.631 3.38482 11.9832 4.01882 12.3589C5.38073 13.1338 6.71916 13.9321 8.05759 14.6835C8.76203 15.0827 9.58387 14.6366 9.58387 13.7443C9.56039 13.439 9.37254 13.1573 9.0438 12.9694C7.07138 11.8188 5.09895 10.6917 3.12653 9.54115C2.89172 9.42374 2.6569 9.3533 2.39861 9.42374C1.99943 9.51767 1.71765 9.77596 1.62373 10.1986C1.5298 10.6213 1.71765 11.0205 2.11683 11.2553Z" fill="white"/>
</svg>
