<svg width="20" height="22" viewBox="0 0 20 22" fill="none" xmlns="http://www.w3.org/2000/svg">
<path d="M10.006 0.000135422C8.91908 0.000135422 7.91209 0.271864 6.98501 0.815321C6.05794 1.35878 5.32801 2.08871 4.7952 3.00513C4.2624 3.92155 3.996 4.92321 3.996 6.01013C3.996 7.09704 4.2624 8.0987 4.7952 9.01512C5.32801 9.93154 6.05794 10.6561 6.98501 11.1889C7.91209 11.7217 8.91375 11.9881 9.99001 11.9881C11.0663 11.9881 12.0679 11.7217 12.995 11.1889C13.9221 10.6561 14.652 9.93154 15.1848 9.01512C15.7176 8.0987 15.984 7.09704 15.984 6.01013C15.984 4.92321 15.7176 3.92155 15.1848 3.00513C14.652 2.08871 13.9221 1.35878 12.995 0.815321C12.0679 0.271864 11.0716 0.000135422 10.006 0.000135422ZM10.006 11.9881C8.19447 11.9881 6.51082 12.4464 4.95504 13.3628C3.44189 14.2579 2.24842 15.462 1.37463 16.9752C0.458208 18.5309 0 20.2039 0 21.9941H1.98202C1.98202 20.5449 2.33899 19.2076 3.05295 17.9822C3.7669 16.7567 4.7366 15.787 5.96204 15.0731C7.18748 14.3591 8.53014 14.0021 9.99001 14.0021C11.4499 14.0021 12.7925 14.3591 14.018 15.0731C15.2434 15.787 16.2131 16.7567 16.9271 17.9822C17.641 19.2076 17.998 20.5449 17.998 21.9941H19.98C19.98 20.2039 19.5218 18.5309 18.6054 16.9752C17.7316 15.462 16.5381 14.2579 15.025 13.3628C13.4692 12.4677 11.7962 12.0201 10.006 12.0201V11.9881ZM10.006 2.01412C10.7306 2.01412 11.3966 2.18995 12.004 2.54159C12.6114 2.89324 13.0962 3.37809 13.4585 3.99614C13.8208 4.61419 14.002 5.28552 14.002 6.01013C14.002 6.73473 13.8208 7.40073 13.4585 8.00813C13.0962 8.61552 12.6114 9.10037 12.004 9.46267C11.3966 9.82498 10.7253 10.0061 9.99001 10.0061C9.25474 10.0061 8.58342 9.82498 7.97602 9.46267C7.36863 9.10037 6.88378 8.61552 6.52148 8.00813C6.15917 7.40073 5.97802 6.73473 5.97802 6.01013C5.97802 5.28552 6.15917 4.61419 6.52148 3.99614C6.88378 3.37809 7.36863 2.89324 7.97602 2.54159C8.58342 2.18995 9.26007 2.01412 10.006 2.01412Z" fill="url(#paint0_linear_1_1853)"/>
<defs>
<linearGradient id="paint0_linear_1_1853" x1="9.99001" y1="21.9941" x2="9.99001" y2="0.000135422" gradientUnits="userSpaceOnUse">
<stop stop-color="#D3A86B"/>
<stop offset="1" stop-color="#A3784A"/>
</linearGradient>
</defs>
</svg>
