<svg width="18" height="18" viewBox="0 0 18 18" fill="none" xmlns="http://www.w3.org/2000/svg">
<path fill-rule="evenodd" clip-rule="evenodd" d="M10 3.80126C10 3.35862 9.62579 3 9.16389 3C8.70199 3 8.32777 3.35862 8.32777 3.80126V8.6425L6.24486 10.6333C5.91838 10.9461 5.91838 11.4527 6.24486 11.7654C6.57134 12.0782 7.10095 12.0782 7.4273 11.7654L9.75115 9.54373C9.86217 9.43734 9.93551 9.30975 9.97104 9.17355C9.98994 9.1075 10 9.03735 10 8.96604V3.80126Z" fill="url(#paint0_linear_1_2778)"/>
<path fill-rule="evenodd" clip-rule="evenodd" d="M9 0C4.02916 0 0 4.03017 0 9C0 13.9698 4.02916 18 9 18C13.9708 18 18 13.9708 18 9C18 4.02916 13.9708 0 9 0ZM9 16.4164C4.90355 16.4164 1.5836 13.0964 1.5836 9C1.5836 4.90355 4.90368 1.5836 9 1.5836C13.0963 1.5836 16.4164 4.90457 16.4164 9C16.4164 13.0954 13.0954 16.4164 9 16.4164Z" fill="url(#paint1_linear_1_2778)"/>
<defs>
<linearGradient id="paint0_linear_1_2778" x1="8" y1="3" x2="8" y2="12" gradientUnits="userSpaceOnUse">
<stop stop-color="#D3A86B"/>
<stop offset="1" stop-color="#A3784A"/>
</linearGradient>
<linearGradient id="paint1_linear_1_2778" x1="9" y1="0" x2="9" y2="18" gradientUnits="userSpaceOnUse">
<stop stop-color="#D3A86B"/>
<stop offset="1" stop-color="#A3784A"/>
</linearGradient>
</defs>
</svg>
