<svg width="20" height="20" viewBox="0 0 20 20" fill="none" xmlns="http://www.w3.org/2000/svg">
<path fill-rule="evenodd" clip-rule="evenodd" d="M20 10C20 15.5228 15.5228 20 10 20C4.47715 20 0 15.5228 0 10C0 4.47715 4.47715 0 10 0C15.5228 0 20 4.47715 20 10ZM4.35922 11.7852L7.25279 14.645C7.73175 15.1183 8.50798 15.1183 8.98695 14.645L15.6408 8.06892C16.1197 7.59555 16.1197 6.82839 15.6408 6.35503C15.1618 5.88166 14.3856 5.88166 13.9066 6.35503L8.11987 12.0741L6.09339 10.0713C5.61442 9.59797 4.83819 9.59797 4.35922 10.0713C3.88026 10.5447 3.88026 11.3119 4.35922 11.7852Z" fill="#C6A15A"/>
</svg>
