<svg width="24" height="21" viewBox="0 0 24 21" fill="none" xmlns="http://www.w3.org/2000/svg">
<path d="M0.488281 10.4251C0.488281 10.9044 0.867729 11.194 1.33708 11.194C1.62667 11.194 1.85631 11.0542 2.05605 10.8545L11.8021 1.97717C11.912 1.86733 12.0318 1.82736 12.1616 1.82736C12.2815 1.82736 12.3913 1.86733 12.5111 1.97717L22.2473 10.8545C22.4569 11.0542 22.6866 11.194 22.9661 11.194C23.4355 11.194 23.8151 10.9044 23.8151 10.4251C23.8151 10.1255 23.7052 9.93581 23.5155 9.76607L20.0603 6.62052V0.718974C20.0603 0.27958 19.7807 0 19.3415 0H18.0332C17.6039 0 17.3043 0.27958 17.3043 0.718974V4.11411L13.3499 0.499298C13.0004 0.169742 12.571 0.0099698 12.1516 0.0099698C11.7322 0.0099698 11.3129 0.169742 10.9533 0.499298L0.787843 9.76607C0.608132 9.93581 0.488281 10.1255 0.488281 10.4251ZM3.34419 18.8032C3.34419 20.1912 4.18302 21 5.59101 21H9.6352V13.9002C9.6352 13.4408 9.94478 13.1412 10.4042 13.1412H13.9291C14.3884 13.1412 14.688 13.4408 14.688 13.9002V21H18.7222C20.1302 21 20.9591 20.1912 20.9591 18.8032V11.4936L12.4812 3.85447C12.3713 3.7546 12.2515 3.70471 12.1317 3.70471C12.0218 3.70471 11.912 3.7546 11.7922 3.86448L3.34419 11.5435V18.8032Z" fill="black"/>
</svg>
