<svg width="11" height="15" viewBox="0 0 11 15" fill="none" xmlns="http://www.w3.org/2000/svg">
<path fill-rule="evenodd" clip-rule="evenodd" d="M5.11427 0.63211C2.26387 0.775624 -0.00195312 3.06739 -0.00195312 5.87359C-0.00195312 7.05772 0.401647 8.15017 1.08212 9.02835H1.08202L4.73639 13.8019C5.06617 14.2327 5.72988 14.2327 6.05965 13.8019L9.71403 9.02825H9.71392C10.338 8.22304 10.7291 7.23767 10.7898 6.16659C10.9657 3.0605 8.31048 0.47129 5.11427 0.63211ZM8.24889 6.02487C8.24889 7.59888 6.9729 8.87487 5.39889 8.87487C3.82488 8.87487 2.54889 7.59888 2.54889 6.02487C2.54889 4.45086 3.82488 3.17487 5.39889 3.17487C6.9729 3.17487 8.24889 4.45086 8.24889 6.02487Z" fill="url(#paint0_linear_1_1675)"/>
<defs>
<linearGradient id="paint0_linear_1_1675" x1="5.39805" y1="0.625" x2="5.39805" y2="14.125" gradientUnits="userSpaceOnUse">
<stop stop-color="#D3A86B"/>
<stop offset="1" stop-color="#A3784A"/>
</linearGradient>
</defs>
</svg>
