<svg width="541" height="99" viewBox="0 0 541 99" fill="none" xmlns="http://www.w3.org/2000/svg">
<path d="M58.8497 1.79297C41.3377 1.79297 27.1367 15.994 27.1367 33.506C27.1367 33.858 27.1477 34.199 27.1587 34.551C30.3597 33.132 33.8027 32.186 37.4327 31.812C38.3017 20.735 47.5637 12.012 58.8607 12.012C70.1687 12.012 79.4197 20.735 80.2887 31.812C83.9187 32.186 87.3727 33.132 90.5628 34.551C90.5738 34.199 90.5847 33.858 90.5847 33.506C90.5737 15.994 76.3617 1.79297 58.8497 1.79297ZM76.1857 46.211C72.2807 51.546 65.9667 55.011 58.8497 55.011C51.7327 55.011 45.4187 51.546 41.5137 46.211C41.3157 46.211 41.1177 46.2 40.9087 46.2C37.3337 46.2 33.9787 47.168 31.1077 48.873C36.5197 58.619 46.9147 65.219 58.8497 65.219C70.7847 65.219 81.1797 58.619 86.5917 48.884C83.7207 47.179 80.3657 46.2 76.7797 46.2C76.5817 46.2 76.3837 46.211 76.1857 46.211Z" fill="#8BC700"/>
<path d="M72.6005 64.449C69.4105 65.868 65.9565 66.814 62.3375 67.188C61.4685 78.265 52.2065 86.988 40.9095 86.988C29.0295 86.988 19.4045 77.363 19.4045 65.483C19.4045 53.603 29.0295 43.978 40.9095 43.978C43.8905 43.978 46.7285 44.594 49.3025 45.683C51.4035 42.768 53.9665 40.194 56.8815 38.082C52.1845 35.343 46.7285 33.77 40.8985 33.77C23.3865 33.77 9.18555 47.971 9.18555 65.483C9.18555 82.995 23.3865 97.196 40.8985 97.196C58.4105 97.196 72.6115 82.995 72.6115 65.483C72.6225 65.142 72.6225 64.801 72.6005 64.449Z" fill="#8BC700"/>
<path d="M76.7814 33.781C64.8464 33.781 54.4514 40.37 49.0394 50.116C51.9104 51.821 55.2654 52.8 58.8514 52.8C59.0494 52.8 59.2364 52.8 59.4344 52.789C63.3504 47.454 69.6534 43.989 76.7814 43.989C88.6504 43.989 98.2754 53.614 98.2754 65.494C98.2754 77.363 88.6504 86.999 76.7814 86.999C73.8004 86.999 70.9624 86.383 68.3884 85.294C66.2874 88.22 63.7244 90.783 60.8094 92.906C65.5064 95.645 70.9624 97.218 76.7814 97.218C94.2934 97.218 108.494 83.017 108.494 65.505C108.494 47.971 94.2934 33.781 76.7814 33.781ZM45.0794 64.449C45.0684 64.801 45.0684 65.142 45.0684 65.494C45.0684 71.753 46.8834 77.594 50.0184 82.511C53.1754 80.817 55.8044 78.276 57.5974 75.185C56.3654 72.754 55.5734 70.048 55.3534 67.188C51.7234 66.814 48.2804 65.868 45.0794 64.449Z" fill="#8BC700"/>
<path d="M135.191 34.914C136.786 35.717 139.349 36.509 141.989 36.509C144.398 36.509 145.553 35.717 145.553 34.419C145.553 33.165 144.387 32.483 141.439 31.493C137.017 29.931 134.069 27.566 134.069 23.771C134.069 19.239 137.985 15.741 144.585 15.741C147.698 15.741 149.942 16.313 151.647 17.028L150.173 22.539C149.051 22.044 147.104 21.318 144.508 21.318C142.374 21.318 141.208 22.077 141.208 23.221C141.208 24.508 142.605 25.014 145.905 26.224C150.602 27.929 152.703 30.371 152.703 33.946C152.703 38.357 149.205 42.13 141.56 42.13C138.414 42.13 135.345 41.327 133.871 40.568L135.191 34.914Z" fill="#8BC700"/>
<path d="M156.355 16.115H163.384V36.014H173.438V41.767H156.355V16.115Z" fill="#8BC700"/>
<path d="M187.056 36.751C190.433 36.751 192.413 33.55 192.413 28.908C192.413 24.497 190.389 21.142 186.979 21.142C183.602 21.142 181.545 24.486 181.545 28.941C181.501 33.55 183.602 36.74 186.979 36.74H187.056V36.751ZM186.715 42.185C178.597 42.185 174.131 36.212 174.131 29.095C174.131 21.637 179.103 15.708 187.133 15.708C195.559 15.708 199.827 21.835 199.827 28.688C199.827 36.949 194.778 42.196 186.737 42.196H186.715V42.185Z" fill="#8BC700"/>
<path d="M209.309 41.767L201.004 16.126H208.693L211.487 26.213C212.301 29.106 213.005 31.922 213.665 35.189H213.742C214.358 32.065 215.106 29.106 215.876 26.323L218.714 16.126H226.172L217.636 41.767H209.309Z" fill="#8BC700"/>
<path d="M245.257 31.416H235.863V36.135H246.379V41.767H228.834V16.126H245.84V21.747H235.863V25.861H245.257V31.416Z" fill="#8BC700"/>
<path d="M250.107 41.767V16.126H258.379L262.537 24.002C263.978 26.554 265.485 29.975 266.651 32.989H266.772C266.387 29.601 266.222 26.026 266.222 22.22V16.126H272.624V41.767H265.254L260.788 33.242C259.358 30.536 257.642 27.082 256.399 23.991H256.245C256.443 27.456 256.52 31.295 256.52 35.442V41.756H250.107V41.767Z" fill="#8BC700"/>
<path d="M277.783 34.914C279.378 35.717 281.941 36.509 284.581 36.509C286.99 36.509 288.145 35.717 288.145 34.419C288.145 33.165 286.979 32.483 284.031 31.493C279.609 29.931 276.661 27.566 276.661 23.771C276.661 19.239 280.577 15.741 287.177 15.741C290.29 15.741 292.534 16.313 294.239 17.028L292.765 22.539C291.643 22.044 289.696 21.318 287.1 21.318C284.966 21.318 283.8 22.077 283.8 23.221C283.8 24.508 285.197 25.014 288.497 26.224C293.194 27.929 295.295 30.371 295.295 33.946C295.295 38.357 291.797 42.13 284.152 42.13C281.006 42.13 277.937 41.327 276.463 40.568L277.783 34.914Z" fill="#8BC700"/>
<path d="M298.938 16.115H305.889V26.994H305.966C306.505 26.048 307.089 25.091 307.639 24.178L312.687 16.115H321.3L312.995 27.038L321.619 41.767H313.501L307.99 31.383L305.9 34.012V41.767H298.948V16.115H298.938Z" fill="#8BC700"/>
<path d="M337.063 30.7671L335.864 26.1691C335.479 24.7281 334.973 22.6271 334.577 21.1091H334.5C334.115 22.6381 333.719 24.7281 333.334 26.1691L332.201 30.7671H337.063ZM342.068 9.95508L337.415 14.7511H331.827L334.973 9.95508H342.068ZM331.277 35.8271L329.803 41.7671H322.543L330.155 16.1261H339.472L347.282 41.7671H339.714L338.042 35.8271H331.277Z" fill="#8BC700"/>
<path d="M356.4 38.115L367.972 21.945V21.791H357.489V16.115H377.058V20.042L365.827 35.948V36.091H377.245V41.767H356.4V38.115Z" fill="#8BC700"/>
<path d="M393.79 30.7671L392.591 26.1691C392.206 24.7281 391.7 22.6271 391.304 21.1091H391.227C390.842 22.6381 390.446 24.7281 390.061 26.1691L388.928 30.7671H393.79ZM398.795 9.95508L394.142 14.7511H388.554L391.7 9.95508H398.795ZM388.004 35.8271L386.53 41.7671H379.27L386.882 16.1261H396.199L404.009 41.7671H396.441L394.769 35.8271H388.004Z" fill="#8BC700"/>
<path d="M414.128 27.192H415.954C418.594 27.192 420.112 25.938 420.112 24.035C420.112 22.132 418.836 21.032 416.504 21.032C415.184 21.032 414.491 21.109 414.139 21.186V27.192H414.128ZM407.176 16.5C409.156 16.203 412.148 15.928 415.635 15.928C419.628 15.928 422.51 16.456 424.49 17.941C426.162 19.195 427.053 21.021 427.053 23.496C427.053 26.697 424.6 28.941 422.587 29.7V29.81C424.292 30.569 425.271 32.208 425.931 34.408C426.701 37.037 427.559 40.766 428.065 41.756H420.915C420.53 40.997 419.826 39.017 419.089 35.816C418.385 32.78 417.417 32.131 415.25 32.131H414.128V41.756H407.176V16.5Z" fill="#8BC700"/>
<path d="M437.69 16.115V30.69C437.69 34.573 439.054 36.74 441.804 36.74C444.598 36.74 445.962 34.76 445.962 30.69V16.115H452.991V30.272C452.991 38.181 448.954 42.185 441.617 42.185C434.467 42.185 430.672 38.346 430.672 30.118V16.115H437.69Z" fill="#8BC700"/>
<path d="M466.774 14.7511L462.935 9.95508H467.632L469.381 12.1991H469.458L471.163 9.95508H475.86L472.01 14.7511H466.774ZM477.18 41.0851C476.201 41.5801 473.726 42.1521 470.624 42.1521C460.845 42.1521 456.533 36.1791 456.533 29.3701C456.533 20.3501 463.287 15.7521 471.097 15.7521C474.089 15.7521 476.531 16.3241 477.62 16.8521L476.256 22.2971C475.134 21.8461 473.506 21.3841 471.405 21.3841C467.412 21.3841 463.914 23.7051 463.914 28.9191C463.914 33.5611 466.752 36.4541 471.559 36.4541C473.231 36.4541 475.134 36.1461 476.212 35.7281L477.18 41.0851Z" fill="#8BC700"/>
<path d="M480.822 41.767V16.126H489.094L493.252 24.002C494.693 26.554 496.2 29.975 497.366 32.989H497.487C497.091 29.601 496.937 26.026 496.937 22.22V16.126H503.339V41.767H495.969L491.503 33.242C490.073 30.536 488.357 27.082 487.114 23.991H486.96C487.158 27.456 487.235 31.295 487.235 35.442V41.756H480.822V41.767Z" fill="#8BC700"/>
<path d="M520.696 30.7671L519.497 26.1691C519.112 24.7281 518.606 22.6271 518.21 21.1091H518.133C517.748 22.6381 517.352 24.7281 516.967 26.1691L515.834 30.7671H520.696ZM525.701 9.95508L521.048 14.7511H515.46L518.606 9.95508H525.701ZM514.91 35.8271L513.436 41.7671H506.176L513.788 16.1261H523.105L530.904 41.7671H523.336L521.664 35.8271H514.91Z" fill="#8BC700"/>
<path d="M147.389 70.1801L146.179 65.5711C145.794 64.1301 145.288 62.0291 144.892 60.5111H144.815C144.43 62.0291 144.034 64.1301 143.649 65.5711L142.516 70.1801H147.389ZM141.603 75.2401L140.129 81.1801H132.869L140.481 55.5391H149.798L157.608 81.1801H150.04L148.368 75.2401H141.603Z" fill="#8BC700"/>
<path d="M175.968 66.6051H177.794C180.434 66.6051 181.952 65.3511 181.952 63.4481C181.952 61.5451 180.676 60.4451 178.344 60.4451C177.024 60.4451 176.32 60.5221 175.979 60.5991V66.6051H175.968ZM169.016 55.9131C170.996 55.6161 173.988 55.3411 177.475 55.3411C181.468 55.3411 184.35 55.8801 186.33 57.3541C188.002 58.6081 188.893 60.4341 188.893 62.9091C188.893 66.1101 186.44 68.3541 184.427 69.1131V69.2231C186.132 69.9821 187.111 71.6211 187.771 73.8321C188.541 76.4611 189.399 80.1901 189.905 81.1801H182.755C182.37 80.4211 181.666 78.4411 180.929 75.2401C180.236 72.2041 179.257 71.5551 177.09 71.5551H175.968V81.1801H169.016V55.9131Z" fill="#8BC700"/>
<path d="M204.688 76.1638C208.065 76.1638 210.045 72.9628 210.045 68.3208C210.045 63.9098 208.021 60.5548 204.611 60.5548C201.234 60.5548 199.177 63.8988 199.177 68.3538C199.133 72.9518 201.234 76.1529 204.611 76.1529H204.688V76.1638ZM204.336 81.5978C196.218 81.5978 191.752 75.6248 191.752 68.5078C191.752 61.0498 196.724 55.1208 204.754 55.1208C213.18 55.1208 217.448 61.2478 217.448 68.1008C217.448 76.3618 212.399 81.6088 204.358 81.6088H204.336V81.5978Z" fill="#8BC700"/>
<path d="M219.781 77.5281L231.353 61.3581V61.2041H220.87V55.5281H240.439V59.4551L229.219 75.3611V75.5041H240.626V81.1801H219.781V77.5281Z" fill="#8BC700"/>
<path d="M250.768 81.1801L242.463 55.5391H250.152L252.946 65.6261C253.76 68.5191 254.464 71.3351 255.124 74.6021H255.201C255.817 71.4781 256.565 68.5191 257.335 65.7361L260.173 55.5391H267.631L259.095 81.1801H250.768Z" fill="#8BC700"/>
<path d="M282.018 76.1638C285.395 76.1638 287.375 72.9628 287.375 68.3208C287.375 63.9098 285.351 60.5548 281.941 60.5548C278.564 60.5548 276.507 63.8988 276.507 68.3538C276.463 72.9518 278.564 76.1529 281.941 76.1529H282.018V76.1638ZM281.666 81.5978C273.548 81.5978 269.082 75.6248 269.082 68.5078C269.082 61.0498 274.054 55.1208 282.084 55.1208C290.51 55.1208 294.778 61.2478 294.778 68.1008C294.778 76.3618 289.729 81.6088 281.688 81.6088H281.666V81.5978Z" fill="#8BC700"/>
<path d="M303.722 55.5281H310.751V71.3571C310.751 78.8151 307.099 81.5871 300.807 81.5871C299.377 81.5871 297.474 81.4001 296.188 80.9711L296.924 75.4601C297.782 75.6911 298.871 75.8781 299.993 75.8781C302.248 75.8781 303.722 74.8881 303.722 71.3571V55.5281Z" fill="#8BC700"/>
<path d="M327.405 76.1638C330.782 76.1638 332.762 72.9628 332.762 68.3208C332.762 63.9098 330.738 60.5548 327.328 60.5548C323.951 60.5548 321.894 63.8988 321.894 68.3538C321.85 72.9518 323.951 76.1529 327.328 76.1529H327.405V76.1638ZM327.053 81.5978C318.935 81.5978 314.469 75.6248 314.469 68.5078C314.469 61.0498 319.441 55.1208 327.471 55.1208C335.897 55.1208 340.165 61.2478 340.165 68.1008C340.165 76.3618 335.116 81.6088 327.075 81.6088H327.053V81.5978Z" fill="#8BC700"/>
<path d="M349.998 81.1801L341.693 55.5391H349.382L352.176 65.6261C352.99 68.5191 353.694 71.3351 354.354 74.6021H354.431C355.047 71.4781 355.784 68.5191 356.565 65.7361L359.403 55.5391H366.861L358.325 81.1801H349.998Z" fill="#8BC700"/>
<path d="M380.501 70.1799L379.302 65.5709C378.917 64.1299 378.411 62.0289 378.015 60.5109H377.938C377.553 62.0289 377.157 64.1299 376.772 65.5709L375.639 70.1799H380.501ZM385.517 49.3679L380.864 54.1639H375.276L378.422 49.3679H385.517ZM374.726 75.2399L373.252 81.1799H365.992L373.604 55.5389H382.921L390.731 81.1799H383.163L381.491 75.2399H374.726Z" fill="#8BC700"/>
<path d="M409.079 76.3841C409.585 76.4611 410.201 76.4611 411.092 76.4611C413.424 76.4611 415.404 75.5481 415.404 73.2601C415.404 71.0931 413.38 70.2571 410.751 70.2571H409.079V76.3841ZM409.079 65.3841H410.476C413.468 65.3841 414.898 64.3611 414.898 62.7221C414.898 61.2371 413.732 60.2911 411.367 60.2911C410.201 60.2911 409.541 60.3681 409.079 60.4451V65.3841ZM402.127 55.9131C403.722 55.6161 407.176 55.3411 410.399 55.3411C414.128 55.3411 416.372 55.6161 418.396 56.5951C420.453 57.5521 421.927 59.3781 421.927 61.8861C421.927 64.0201 420.728 66.1101 417.659 67.2431V67.3201C420.838 68.1891 422.785 70.5101 422.785 73.5571C422.785 75.9881 421.586 77.8911 419.837 79.1891C417.89 80.6411 414.634 81.4771 409.046 81.4771C405.867 81.4771 403.535 81.2901 402.138 81.0151V55.9131H402.127Z" fill="#8BC700"/>
<path d="M439.286 70.1801L438.087 65.5711C437.702 64.1301 437.196 62.0291 436.8 60.5111H436.723C436.338 62.0291 435.942 64.1301 435.557 65.5711L434.424 70.1801H439.286ZM433.5 75.2401L432.026 81.1801H424.766L432.378 55.5391H441.695L449.494 81.1801H441.926L440.254 75.2401H433.5Z" fill="#8BC700"/>
<path d="M453.025 81.1801V55.5391H461.297L465.455 63.4151C466.896 65.9671 468.403 69.3881 469.569 72.4021H469.69C469.305 69.0141 469.14 65.4391 469.14 61.6331V55.5391H475.542V81.1801H468.172L463.706 72.6551C462.276 69.9601 460.56 66.4951 459.317 63.4041H459.163C459.361 66.8691 459.438 70.7081 459.438 74.8551V81.1691H453.025V81.1801Z" fill="#8BC700"/>
<path d="M480.59 55.5281H487.542V66.4071H487.619C488.169 65.4611 488.741 64.5041 489.291 63.5911L494.34 55.5281H502.964L494.659 66.4511L503.272 81.1801H495.154L489.643 70.7961L487.553 73.4251V81.1801H480.601V55.5281H480.59Z" fill="#8BC700"/>
<path d="M519.069 70.1801L517.87 65.5711C517.485 64.1301 516.979 62.0291 516.583 60.5111H516.506C516.121 62.0291 515.725 64.1301 515.34 65.5711L514.207 70.1801H519.069ZM513.283 75.2401L511.809 81.1801H504.549L512.161 55.5391H521.478L529.277 81.1801H521.709L520.037 75.2401H513.283Z" fill="#8BC700"/>
</svg>
